<svg width="16" height="16" viewBox="0 0 16 16" fill="none" xmlns="http://www.w3.org/2000/svg">
<path fill-rule="evenodd" clip-rule="evenodd" d="M11.0813 7.48279C11.2373 7.32759 11.2373 7.07319 11.0813 6.91799C10.9261 6.76199 10.6717 6.76199 10.5157 6.91799L7.19893 10.234L6.28213 9.31799C6.12693 9.16199 5.87253 9.16199 5.71733 9.31799C5.56133 9.47319 5.56133 9.72759 5.71733 9.88279L6.91733 11.0828C6.99493 11.1604 7.09733 11.1996 7.19893 11.1996C7.30133 11.1996 7.40373 11.162 7.48133 11.0828L11.0813 7.48279ZM8.39961 1.5996C8.29561 1.5996 8.19241 1.6428 8.11801 1.718C8.04201 1.7916 7.99961 1.8956 7.99961 1.9996C7.99961 2.1044 8.04361 2.2068 8.11801 2.282C8.19161 2.358 8.29481 2.3996 8.39961 2.3996C8.50441 2.3996 8.60761 2.3572 8.68201 2.282C8.75801 2.2076 8.79961 2.1044 8.79961 1.9996C8.79961 1.8956 8.75721 1.7924 8.68201 1.718C8.60841 1.642 8.50441 1.5996 8.39961 1.5996ZM6.1588 2.5676C6.4692 2.4052 6.7988 2.3996 6.7996 2.3996C7.0212 2.3996 7.1996 2.2212 7.1996 1.9996C7.1996 1.338 7.738 0.799596 8.3996 0.799596C9.062 0.799596 9.5996 1.338 9.5996 1.9996C9.5996 2.2212 9.7764 2.3996 9.998 2.3996C10.0012 2.3996 10.3308 2.4052 10.6412 2.5676C10.906 2.706 11.0748 2.9148 11.1524 3.1996H5.6476C5.7252 2.914 5.894 2.706 6.1588 2.5676ZM5.19961 3.9996H11.5988C11.8204 3.9996 11.9988 3.8212 11.9988 3.5996C11.9988 3.5932 11.9988 3.586 11.998 3.578C11.9924 2.7852 11.6308 2.1684 10.9772 1.842C10.758 1.7324 10.5404 1.6716 10.366 1.6388C10.1964 0.707596 9.37801 -0.000404358 8.39881 -0.000404358C7.42041 -0.000404358 6.60201 0.707596 6.43161 1.6388C6.25881 1.6716 6.04041 1.7324 5.82121 1.842C5.16281 2.1708 4.79961 2.7964 4.79961 3.5996C4.79961 3.8212 4.97881 3.9996 5.19961 3.9996ZM13.9996 2.3996H13.1996C12.9788 2.3996 12.7996 2.5788 12.7996 2.7996C12.7996 3.0212 12.9788 3.1996 13.1996 3.1996H13.9996C14.2212 3.1996 14.3996 3.3788 14.3996 3.5996V14.7996C14.3996 15.0212 14.2212 15.1996 13.9996 15.1996H2.79961C2.57881 15.1996 2.39961 15.0212 2.39961 14.7996V3.5996C2.39961 3.3788 2.57881 3.1996 2.79961 3.1996H3.59961C3.82121 3.1996 3.99961 3.0212 3.99961 2.7996C3.99961 2.5788 3.82121 2.3996 3.59961 2.3996H2.79961C2.13801 2.3996 1.59961 2.938 1.59961 3.5996V14.7996C1.59961 15.462 2.13801 15.9996 2.79961 15.9996H13.9996C14.662 15.9996 15.1996 15.462 15.1996 14.7996V3.5996C15.1996 2.938 14.662 2.3996 13.9996 2.3996Z" fill="primary.main"/>
</svg>
